<mxfile host="app.diagrams.net" modified="2021-11-01T08:57:43.532Z" agent="5.0 (Windows NT 10.0; Win64; x64) AppleWebKit/537.36 (KHTML, like Gecko) Chrome/95.0.4638.54 Safari/537.36 Edg/95.0.1020.30" etag="FOTyw-_ob23FhEMlhe7T" version="15.6.3" type="github">
  <diagram id="zevsTtnC8CljkGkuGd-C" name="第 1 页">
    <mxGraphModel dx="1550" dy="867" grid="0" gridSize="10" guides="1" tooltips="1" connect="1" arrows="1" fold="1" page="1" pageScale="1" pageWidth="827" pageHeight="1169" math="0" shadow="0">
      <root>
        <mxCell id="0" />
        <mxCell id="1" parent="0" />
        <mxCell id="jgzmwHTa2qqcKj2GmoSE-2" value="" style="rounded=0;whiteSpace=wrap;html=1;" vertex="1" parent="1">
          <mxGeometry x="160" y="280" width="480" height="200" as="geometry" />
        </mxCell>
        <mxCell id="jgzmwHTa2qqcKj2GmoSE-3" value="HTTP Server" style="rounded=0;whiteSpace=wrap;html=1;fillColor=#dae8fc;strokeColor=#6c8ebf;" vertex="1" parent="1">
          <mxGeometry x="350" y="290" width="100" height="30" as="geometry" />
        </mxCell>
        <mxCell id="jgzmwHTa2qqcKj2GmoSE-5" value="Ussd CGI" style="rounded=0;whiteSpace=wrap;html=1;fillColor=#d5e8d4;strokeColor=#82b366;" vertex="1" parent="1">
          <mxGeometry x="350" y="360" width="100" height="30" as="geometry" />
        </mxCell>
        <mxCell id="jgzmwHTa2qqcKj2GmoSE-6" value="USSD Implementation" style="rounded=0;whiteSpace=wrap;html=1;fillColor=#d5e8d4;strokeColor=#82b366;" vertex="1" parent="1">
          <mxGeometry x="500" y="360" width="100" height="30" as="geometry" />
        </mxCell>
        <mxCell id="jgzmwHTa2qqcKj2GmoSE-7" value="Linux" style="rounded=0;whiteSpace=wrap;html=1;fillColor=#dae8fc;strokeColor=#6c8ebf;" vertex="1" parent="1">
          <mxGeometry x="200" y="430" width="400" height="30" as="geometry" />
        </mxCell>
        <mxCell id="jgzmwHTa2qqcKj2GmoSE-12" value="" style="rounded=0;whiteSpace=wrap;html=1;fillColor=#FFFFFF;strokeColor=#000000;" vertex="1" parent="1">
          <mxGeometry x="160" y="120" width="480" height="80" as="geometry" />
        </mxCell>
        <mxCell id="jgzmwHTa2qqcKj2GmoSE-13" value="MiFi/CPE" style="text;html=1;strokeColor=none;fillColor=default;align=center;verticalAlign=middle;whiteSpace=wrap;rounded=0;fontColor=#00FF00;" vertex="1" parent="1">
          <mxGeometry x="200" y="350" width="60" height="30" as="geometry" />
        </mxCell>
        <mxCell id="jgzmwHTa2qqcKj2GmoSE-14" value="Browser" style="text;html=1;align=center;verticalAlign=middle;whiteSpace=wrap;rounded=0;fontColor=#00FF00;" vertex="1" parent="1">
          <mxGeometry x="200" y="145" width="60" height="30" as="geometry" />
        </mxCell>
        <mxCell id="jgzmwHTa2qqcKj2GmoSE-15" value="" style="shape=flexArrow;endArrow=classic;startArrow=classic;html=1;rounded=0;exitX=0.5;exitY=0;exitDx=0;exitDy=0;fillColor=default;entryX=0.5;entryY=1;entryDx=0;entryDy=0;" edge="1" parent="1" source="jgzmwHTa2qqcKj2GmoSE-3" target="jgzmwHTa2qqcKj2GmoSE-18">
          <mxGeometry width="100" height="100" relative="1" as="geometry">
            <mxPoint x="360" y="350" as="sourcePoint" />
            <mxPoint x="460" y="250" as="targetPoint" />
          </mxGeometry>
        </mxCell>
        <mxCell id="jgzmwHTa2qqcKj2GmoSE-18" value="USSD Web GUI" style="rounded=0;whiteSpace=wrap;html=1;fillColor=#d5e8d4;strokeColor=#82b366;" vertex="1" parent="1">
          <mxGeometry x="350" y="145" width="100" height="30" as="geometry" />
        </mxCell>
      </root>
    </mxGraphModel>
  </diagram>
</mxfile>
